<svg width="64" height="64" viewBox="0 0 64 64" fill="none" xmlns="http://www.w3.org/2000/svg">
  <path d="M 32 8 C 22 8, 14 13, 12 22 C 9 22, 6 25, 6 30 C 6 35, 9 38, 12 38 C 12 44, 16 49, 22 51 L 22 56 L 28 56 L 28 51 C 30 51, 32 50, 32 50 C 32 50, 34 51, 36 51 L 36 56 L 42 56 L 42 51 C 48 49, 52 44, 52 38 C 55 38, 58 35, 58 30 C 58 25, 55 22, 52 22 C 50 13, 42 8, 32 8 Z" fill="#5B4A8A"/>
  <path d="M 32 12 L 32 50" stroke="rgba(255,255,255,0.18)" stroke-width="1.2" stroke-linecap="round"/>
  <path d="M 14 24 Q 20 22, 26 26" stroke="rgba(255,255,255,0.18)" stroke-width="1.1" stroke-linecap="round" fill="none"/>
  <path d="M 14 32 Q 20 30, 26 34" stroke="rgba(255,255,255,0.18)" stroke-width="1.1" stroke-linecap="round" fill="none"/>
  <path d="M 14 40 Q 20 38, 24 42" stroke="rgba(255,255,255,0.18)" stroke-width="1.1" stroke-linecap="round" fill="none"/>
  <path d="M 38 26 Q 44 22, 50 24" stroke="rgba(255,255,255,0.18)" stroke-width="1.1" stroke-linecap="round" fill="none"/>
  <path d="M 38 34 Q 44 30, 50 32" stroke="rgba(255,255,255,0.18)" stroke-width="1.1" stroke-linecap="round" fill="none"/>
  <path d="M 40 42 Q 44 38, 50 40" stroke="rgba(255,255,255,0.18)" stroke-width="1.1" stroke-linecap="round" fill="none"/>
  <defs>
    <radialGradient id="halo" cx="0.5" cy="0.5" r="0.5">
      <stop offset="0%" stop-color="#D4A855" stop-opacity="0.55"/>
      <stop offset="100%" stop-color="#D4A855" stop-opacity="0"/>
    </radialGradient>
  </defs>
  <circle cx="18" cy="22" r="6.16" fill="url(#halo)"/>
  <circle cx="18" cy="22" r="2.2" fill="#D4A855"/>
  <circle cx="26" cy="28" r="1.4" fill="rgba(255,255,255,0.85)"/>
  <circle cx="22" cy="38" r="1.6" fill="rgba(255,255,255,0.85)"/>
  <circle cx="38" cy="18" r="1.4" fill="rgba(255,255,255,0.85)"/>
  <circle cx="46" cy="26" r="6.16" fill="url(#halo)"/>
  <circle cx="46" cy="26" r="2.2" fill="#D4A855"/>
  <circle cx="42" cy="38" r="1.6" fill="rgba(255,255,255,0.85)"/>
  <circle cx="32" cy="44" r="1.6" fill="rgba(255,255,255,0.85)"/>
</svg>
